<?xml version="1.0" encoding="utf-8"?>
<!-- Generator: Adobe Illustrator 25.4.1, SVG Export Plug-In . SVG Version: 6.00 Build 0)  -->
<svg version="1.1" id="Capa_1" xmlns="http://www.w3.org/2000/svg" xmlns:xlink="http://www.w3.org/1999/xlink" x="0px" y="0px"
	 viewBox="0 0 200 200" style="enable-background:new 0 0 200 200;" xml:space="preserve">
<style type="text/css">
	.st0{fill:#00AF91;}
	.st1{fill:none;stroke:#00AF91;stroke-width:12;stroke-linecap:round;stroke-miterlimit:10;}
	.st2{fill:#FFFFFF;}
</style>
<g>
	<g>
		<g>
			<g>
				<g>
					<path class="st0" d="M81.8,139.1c-2.9,0-5.5-2.1-5.9-5.1c-0.5-3.2,1.8-6.3,5-6.7l77.6-11.3c5.5-0.5,9.9-4.4,11-9.8l8.7-41.3
						c0.3-1.6-0.4-2.8-0.8-3.3s-1.4-1.5-3.1-1.5L53.7,61c0,0,0,0,0,0c-3.3,0-5.9-2.6-6-5.9c0-3.3,2.6-6,5.9-6l120.6-0.9
						c4.9,0,9.4,2.1,12.4,5.9c3,3.7,4.2,8.6,3.2,13.3l-8.7,41.3c-2.2,10.5-10.8,18.1-21.4,19.2L82.7,139
						C82.4,139.1,82.1,139.1,81.8,139.1z"/>
				</g>
				<g>
					<path class="st1" d="M81.8,133.1"/>
				</g>
				<g>
					<path class="st0" d="M81.8,139.1c-2.4,0-4.7-1.5-5.6-3.9L47.3,55c-1.3-3.7-4.8-6.1-8.7-6.1H13.8c-3.3,0-6-2.7-6-6s2.7-6,6-6
						h24.8c8.9,0,16.9,5.6,19.9,14l28.9,80.1c1.1,3.1-0.5,6.5-3.6,7.6C83.2,139,82.5,139.1,81.8,139.1z"/>
				</g>
				<g>
					<circle class="st0" cx="104.1" cy="154.4" r="8.6"/>
				</g>
				<g>
					<path class="st0" d="M163.4,154.4c0,4.8-3.9,8.6-8.6,8.6c-4.8,0-8.6-3.9-8.6-8.6c0-4.8,3.9-8.6,8.6-8.6
						C159.5,145.8,163.4,149.7,163.4,154.4z"/>
				</g>
			</g>
		</g>
	</g>
	<path class="st2" d="M153.4,95.4l-1.3,43c-0.1,2.1,2.1,3.5,4,2.6l10.6-5c1.4-0.7,3.1-0.1,3.7,1.3l6.8,14.5c0.7,1.4,2.3,2,3.7,1.3
		l3.7-1.7c1.4-0.7,2-2.3,1.3-3.7l-6.8-14.4c-0.7-1.4,0-3.1,1.4-3.7l10.2-4.6c1.9-0.8,2.2-3.4,0.6-4.7l-33.2-26.9
		C156.1,91.9,153.5,93.2,153.4,95.4z"/>
</g>
</svg>
