<?xml version="1.0" encoding="utf-8"?>
<!-- Generator: Adobe Illustrator 25.4.1, SVG Export Plug-In . SVG Version: 6.00 Build 0)  -->
<svg version="1.1" xmlns="http://www.w3.org/2000/svg" xmlns:xlink="http://www.w3.org/1999/xlink" x="0px" y="0px"
	 viewBox="0 0 225.53 79.59" style="enable-background:new 0 0 225.53 79.59;" xml:space="preserve">
<style type="text/css">
	.st0{fill:#001833;}
	.st1{fill:#007657;}
	.st2{fill:#00EDD4;}
	.st3{fill:#FFFFFF;}
	.st4{fill:#00AF91;}
	.st5{fill:none;stroke:#00AF91;stroke-width:12;stroke-linecap:round;stroke-miterlimit:10;}
</style>
<g id="Layer_1">
	<g>
		<rect x="-419.39" y="-343.75" class="st0" width="288" height="288"/>
		<g>
			<path d="M97.16-84.83c2.79-0.48,5.21-2.53,6.33-5.09c0,0,2.38-5.42,2.38-5.42c0.43-0.98,0.67-2.04,0.67-3.11
				c0-2.13-0.95-3.88-2.45-4.9l-2.92-2l4.61-0.79l2.38-5.42l27.22-81.65c0.54-1.63,0.05-3.19-1.12-3.99c0,0-23.61-16.16-23.61-16.16
				c-0.07-0.05-0.14-0.09-0.22-0.14c-0.3-0.17-0.63-0.29-0.99-0.35c-0.09-0.02-0.18-0.03-0.28-0.04c-1.37-0.14-2.78,0.53-3.73,1.65
				c-0.29,0.35-0.54,0.74-0.73,1.17l-2.38,5.42c-0.06,0.13-0.11,0.26-0.15,0.39l-23.64,70.92L5.25-121.81l-25.45-79.68l-23.61-16.16
				l-23.51,4.02c-1.07,0.18-2.03,0.79-2.73,1.61c-0.3,0.36-0.55,0.75-0.73,1.17c0,0-2.38,5.42-2.38,5.42
				c-0.24,0.54-0.37,1.11-0.37,1.7c0,1.16,0.52,2.12,1.34,2.68l23.6,16.16c0.67,0.46,1.54,0.66,2.49,0.49l0.34-0.06l25.45,79.68
				l6.77,4.63c-0.69,1.58-1.92,4.38-1.92,4.38c-0.43,0.98-0.67,2.04-0.67,3.11c0,2.13,0.95,3.87,2.45,4.9
				c0,0,23.61,16.16,23.61,16.16c1.22,0.84,2.81,1.2,4.55,0.9c2.8-0.48,5.21-2.53,6.33-5.09l2.38-5.42
				c0.43-0.98,0.67-2.04,0.67-3.11c0-2.13-0.95-3.87-2.45-4.9c0,0-1.14-0.78-2.92-2l52.9-9.05c6,4.11,21.22,14.53,21.22,14.53
				C93.84-84.89,95.43-84.53,97.16-84.83z"/>
			<g>
				<path class="st1" d="M66.55-106.8c0,3.87,3.13,6.46,7,5.8c2.79-0.48,5.21-2.53,6.33-5.09c0,0,2.38-5.42,2.38-5.42
					c0.43-0.98,0.67-2.04,0.67-3.11c0-2.32-1.13-4.18-2.86-5.16c-1.16-0.65-2.59-0.91-4.14-0.65c-2.79,0.48-5.21,2.53-6.33,5.09
					c-0.01,0.03-0.02,0.06-0.04,0.09c0,0,0,0,0,0l0,0c0,0,0,0,0,0c-0.06,0.13-2.34,5.33-2.34,5.33
					C66.79-108.92,66.55-107.87,66.55-106.8z M-51.87-203.6l31.56,98.83l102.48-17.54l2.38-5.42l27.22-81.65
					c0.58-1.73-0.02-3.38-1.34-4.13c-0.3-0.17-0.63-0.29-0.99-0.35c-1.87-0.34-3.9,0.88-4.73,2.77l-2.38,5.42
					c-0.06,0.13-0.11,0.26-0.15,0.39l-23.64,70.92l-90.78,15.54l-31.56-98.83l-23.51,4.02c-1.53,0.26-2.85,1.38-3.46,2.78
					c0,0-2.38,5.42-2.38,5.42c-0.24,0.54-0.37,1.11-0.37,1.7c0,2.11,1.71,3.53,3.83,3.17L-51.87-203.6z M-16.12-92.65
					c0,3.87,3.13,6.46,7,5.8c2.79-0.48,5.21-2.53,6.33-5.09c0,0,2.38-5.42,2.38-5.42c0.43-0.98,0.67-2.04,0.67-3.11
					c0-2.32-1.13-4.18-2.86-5.16c-1.16-0.65-2.59-0.91-4.14-0.65c-2.79,0.48-5.21,2.53-6.33,5.09c0,0-2.38,5.42-2.38,5.42
					C-15.88-94.78-16.12-93.72-16.12-92.65z"/>
				<g>
					<g>
						<path class="st2" d="M84.55-127.73l-102.48,17.54l-31.56-98.83l-17.83,3.05c-2.11,0.36-3.83-1.06-3.83-3.17
							s1.71-4.12,3.83-4.48l23.51-4.02l31.56,98.83l91.38-15.64l25.42-76.24c0.7-2.11,2.89-3.53,4.88-3.17
							c1.99,0.36,3.04,2.37,2.33,4.49L84.55-127.73z"/>
					</g>
					<g>
						<path class="st2" d="M68.93-112.22c0,3.87,3.13,6.46,7,5.8c3.87-0.66,7-4.33,7-8.2c0-3.87-3.13-6.46-7-5.8
							C72.07-119.76,68.93-116.09,68.93-112.22z"/>
						<path class="st2" d="M-13.75-98.07c0,3.87,3.13,6.46,7,5.8c3.87-0.66,7-4.33,7-8.2c0-3.87-3.13-6.46-7-5.8
							C-10.61-105.61-13.75-101.94-13.75-98.07z"/>
					</g>
				</g>
			</g>
		</g>
		<g>
			<polygon class="st3" points="98.32,-254.3 85.81,-220.15 113.75,-251.17 			"/>
			<polygon class="st3" points="112.52,-230.99 94.3,-218.61 118.61,-223.12 			"/>
			<polygon class="st3" points="81.11,-247.35 77.61,-219.76 71.43,-242.67 			"/>
		</g>
	</g>
	<g>
		<g>
			<path class="st3" d="M111.25,10.26h11.56v3.84h-7.49v7.49h5.95v3.84h-5.95v7.87h7.49v3.84h-11.56V10.26z"/>
			<path class="st3" d="M126.23,10.26h4.07V33.3h7.26v3.84h-11.33V10.26z"/>
			<path class="st3" d="M140.71,10.26h11.56v3.84h-7.49v7.49h5.95v3.84h-5.95v7.87h7.49v3.84h-11.56V10.26z"/>
			<path class="st3" d="M157.11,35.76c-1.18-1.18-1.77-2.71-1.77-4.61v-14.9c0-1.89,0.59-3.43,1.77-4.61
				c1.18-1.18,2.71-1.77,4.61-1.77c1.89,0,3.43,0.59,4.61,1.77c1.18,1.18,1.77,2.71,1.77,4.61v3.15h-3.99v-3.15
				c0-0.77-0.22-1.38-0.65-1.84c-0.44-0.46-1-0.69-1.69-0.69c-0.69,0-1.25,0.23-1.69,0.69c-0.44,0.46-0.65,1.08-0.65,1.84v14.9
				c0,0.77,0.22,1.38,0.65,1.84c0.44,0.46,1,0.69,1.69,0.69c0.69,0,1.25-0.23,1.69-0.69c0.43-0.46,0.65-1.08,0.65-1.84v-3.84h3.99
				v3.84c0,1.9-0.59,3.43-1.77,4.61c-1.18,1.18-2.71,1.77-4.61,1.77C159.82,37.53,158.29,36.94,157.11,35.76z"/>
			<path class="st3" d="M170.67,10.26h12.98v3.84h-4.45v23.04h-4.07V14.1h-4.45V10.26z"/>
			<path class="st3" d="M195.94,37.15l-2.96-11.1h-2.11v11.1h-4.07V10.26h6.38c1.94,0,3.49,0.58,4.65,1.75
				c1.15,1.17,1.73,2.72,1.73,4.67v2.96c0,1.23-0.24,2.32-0.73,3.26c-0.49,0.95-1.18,1.69-2.07,2.23l3.42,12.02H195.94z
				 M190.87,22.21h2.11c0.79,0,1.41-0.22,1.84-0.65c0.43-0.44,0.65-1.05,0.65-1.84V16.6c0-0.79-0.22-1.41-0.65-1.84
				c-0.44-0.44-1.05-0.65-1.84-0.65h-2.11V22.21z"/>
			<path class="st3" d="M204.96,35.74c-1.2-1.19-1.8-2.76-1.8-4.71V16.37c0-1.95,0.6-3.51,1.8-4.71c1.2-1.19,2.78-1.79,4.72-1.79
				c1.95,0,3.52,0.6,4.72,1.79c1.2,1.19,1.8,2.76,1.8,4.71v14.67c0,1.95-0.6,3.51-1.8,4.71c-1.2,1.19-2.78,1.79-4.72,1.79
				C207.74,37.53,206.17,36.93,204.96,35.74z M211.49,33c0.44-0.46,0.65-1.11,0.65-1.96V16.37c0-0.84-0.22-1.5-0.65-1.96
				c-0.43-0.46-1.04-0.69-1.8-0.69c-0.77,0-1.37,0.23-1.8,0.69c-0.44,0.46-0.65,1.11-0.65,1.96v14.67c0,0.84,0.22,1.5,0.65,1.96
				c0.44,0.46,1.04,0.69,1.8,0.69C210.46,33.69,211.06,33.46,211.49,33z"/>
			<path class="st4" d="M112.71,67.92c-1.2-1.19-1.8-2.76-1.8-4.71V48.55c0-1.95,0.6-3.51,1.8-4.71c1.2-1.19,2.78-1.79,4.72-1.79
				s3.52,0.6,4.72,1.79c1.2,1.19,1.8,2.76,1.8,4.71v14.67c0,1.95-0.6,3.51-1.8,4.71c-1.2,1.19-2.78,1.79-4.72,1.79
				S113.92,69.12,112.71,67.92z M119.24,65.18c0.44-0.46,0.65-1.11,0.65-1.96V48.55c0-0.84-0.22-1.5-0.65-1.96
				c-0.43-0.46-1.04-0.69-1.8-0.69c-0.77,0-1.37,0.23-1.8,0.69c-0.44,0.46-0.65,1.11-0.65,1.96v14.67c0,0.84,0.22,1.5,0.65,1.96
				c0.44,0.46,1.04,0.69,1.8,0.69C118.21,65.87,118.81,65.64,119.24,65.18z"/>
			<path class="st4" d="M128.07,42.44h4.49l5.19,18.05V42.44h3.99v26.88h-4.3l-5.38-17.21v17.21h-3.99V42.44z"/>
			<path class="st4" d="M146.2,42.44h4.07v23.04h7.26v3.84H146.2V42.44z"/>
			<path class="st4" d="M160.68,42.44h4.07v26.88h-4.07V42.44z"/>
			<path class="st4" d="M169.21,42.44h4.49l5.19,18.05V42.44h3.99v26.88h-4.3l-5.38-17.21v17.21h-3.99V42.44z"/>
			<path class="st4" d="M187.33,42.44h11.56v3.84h-7.49v7.49h5.95v3.84h-5.95v7.87h7.49v3.84h-11.56V42.44z"/>
		</g>
		<g>
			<g>
				<g>
					<path class="st4" d="M44.19,58.41c-1.37,0-2.57-1.01-2.78-2.4c-0.22-1.53,0.84-2.96,2.37-3.18l36.56-5.31
						c2.57-0.24,4.66-2.09,5.19-4.62l4.11-19.46c0.16-0.76-0.17-1.3-0.38-1.56c-0.21-0.26-0.68-0.69-1.45-0.69l-56.85,0.41
						c-0.01,0-0.01,0-0.02,0c-1.54,0-2.8-1.24-2.81-2.79c-0.01-1.55,1.24-2.82,2.79-2.83l56.87-0.41c2.29,0,4.41,1.01,5.83,2.77
						c1.43,1.76,1.98,4.04,1.51,6.26l-4.11,19.46c-1.04,4.93-5.09,8.55-10.1,9.04L44.6,58.38C44.46,58.4,44.33,58.41,44.19,58.41z"
						/>
				</g>
				<g>
					<path class="st5" d="M44.2,55.6"/>
				</g>
				<g>
					<path class="st4" d="M44.2,58.41c-1.15,0-2.23-0.71-2.64-1.86L27.94,18.77c-0.62-1.73-2.28-2.89-4.12-2.89h-11.7
						c-1.55,0-2.81-1.26-2.81-2.81s1.26-2.81,2.81-2.81h11.7c4.2,0,7.98,2.65,9.4,6.61l13.62,37.78c0.53,1.46-0.23,3.07-1.69,3.59
						C44.83,58.35,44.51,58.41,44.2,58.41z"/>
				</g>
				<g>
					<circle class="st4" cx="54.69" cy="65.65" r="4.06"/>
				</g>
				<g>
					<path class="st4" d="M82.64,65.65c0,2.24-1.82,4.06-4.06,4.06c-2.24,0-4.06-1.82-4.06-4.06c0-2.24,1.82-4.06,4.06-4.06
						C80.82,61.59,82.64,63.41,82.64,65.65z"/>
				</g>
			</g>
		</g>
	</g>
	<path class="st3" d="M77.94,37.84L77.32,58.1c-0.03,0.98,0.98,1.64,1.87,1.22l4.98-2.37c0.65-0.31,1.44-0.03,1.74,0.62l3.21,6.83
		c0.31,0.65,1.08,0.93,1.74,0.63l1.74-0.81c0.66-0.31,0.94-1.09,0.63-1.74l-3.2-6.81c-0.31-0.66-0.02-1.44,0.64-1.75l4.79-2.19
		c0.88-0.4,1.03-1.6,0.28-2.21L80.07,36.86C79.23,36.18,77.97,36.76,77.94,37.84z"/>
</g>
<g id="Capa_2">
	
		<text transform="matrix(0.9848 -0.1736 0.1736 0.9848 -13.7462 -189.956)" class="st2" style="font-family:'Bebas-Regular'; font-size:29.9124px;">ELECTRO</text>
	
		<text transform="matrix(0.9848 -0.1736 0.1736 0.9848 -15.4573 -153.3958)" class="st3" style="font-family:'Bebas-Regular'; font-size:41.6564px;">ONLINE</text>
</g>
</svg>
